:SAMPLES-PER-SECOND 30
:FULLY-SPECIFIED
:DEGREES
65
root  47.7589 38.1843 -2.70804 97.1276 -86.9472 -100.681
RightUpLeg  -22.8381 -13.5333 5.93809
RightLeg  17.1476 -2.7818 -0.734858
RightFoot  6.10915 0.801921 -4.9987
RightToes  -1.74624e-010 0 -3.6325e-017
Spine  6.97017 -4.17743 1.97079
Spine1  9.23897 -6.04931 5.66678
HEad  -15.4101 8.31753 -5.46237
LeftShoulder1  9.61584 -13.252 -50.0998
LeftArm  -0.119897 -4.77858 -24.8657
LeftForeArm  23.8427 -27.1148 -4.55147
LeftHand  -0.244104 0.0205437 5.32207
RightShoulder  6.62463 10.0075 42.7097
RightArm  -5.92274 -20.1544 27.7722
RightForeArm  13.4471 4.42028 6.35685
RightHand  -1.03261 2.34381 -15.6326
LeftUpLeg  20.1952 11.3476 5.80559
LeftLeg  15.7945 1.88852 -0.112085
LeftFoot  -21.4077 -0.489908 -7.09182
LeftToes  -6.82154e-011 1.37952e-011 -1.79748e-011
66
root  46.0893 38.1977 -2.84277 102.437 -85.6432 -106.059
RightUpLeg  -22.3531 -11.6416 7.03704
RightLeg  21.5228 -3.73945 -1.90069
RightFoot  3.3766 0.903128 -6.77604
RightToes  -1.74624e-010 0 -3.6325e-017
Spine  6.9174 -4.19306 4.13046
Spine1  9.00769 -5.8034 5.5045
HEad  -15.4379 8.89437 -5.5852
LeftShoulder1  9.72076 -13.2131 -50.7568
LeftArm  0.125637 -2.2371 -25.007
LeftForeArm  24.7419 -27.6919 -4.63115
LeftHand  -0.244104 0.0205437 5.32207
RightShoulder  6.85354 10.2026 43.6087
RightArm  -6.27196 -17.6836 27.2306
RightForeArm  13.1102 3.86321 6.30118
RightHand  -1.12504 2.88056 -15.9347
LeftUpLeg  19.8419 11.618 7.74359
LeftLeg  21.0655 1.22229 1.00863
LeftFoot  -17.2349 -0.493248 -11.861
LeftToes  -6.82154e-011 1.37952e-011 -1.79748e-011
67
root  44.5456 38.3154 -3.00595 100.231 -85.1324 -103.406
RightUpLeg  -21.1596 -10.9394 7.29695
RightLeg  23.8355 -4.4979 -2.39165
RightFoot  -0.515521 0.623695 -6.58458
RightToes  -1.74624e-010 0 -3.6325e-017
Spine  6.71276 -4.22672 5.40544
Spine1  8.60902 -5.53126 5.41813
HEad  -15.3302 9.15292 -5.28504
LeftShoulder1  9.75859 -13.2315 -50.8963
LeftArm  0.670956 0.64993 -25.6398
LeftForeArm  24.7237 -27.564 -4.60382
LeftHand  -0.244104 0.0205437 5.32207
RightShoulder  7.00851 10.3692 44.0845
RightArm  -7.14228 -14.5941 27.8298
RightForeArm  12.7136 3.1248 6.13309
RightHand  -1.26495 3.49975 -16.657
LeftUpLeg  15.448 9.28868 7.80006
LeftLeg  30.6081 3.56924 2.6486
LeftFoot  -8.18001 0.388102 -13.4399
LeftToes  -6.82154e-011 1.37952e-011 -1.79748e-011
68
root  43.1337 38.4901 -3.14779 86.7541 -84.7729 -89.2065
RightUpLeg  -19.6585 -12.7056 7.61298
RightLeg  24.4607 -4.04938 -2.25104
RightFoot  -3.48601 0.38596 -5.96381
RightToes  -1.74624e-010 0 -3.6325e-017
Spine  6.48158 -4.36185 7.08418
Spine1  8.14611 -5.20396 5.00586
HEad  -15.059 8.3008 -4.40801
LeftShoulder1  9.79566 -13.3626 -50.6962
LeftArm  2.28472 3.04028 -26.6292
LeftForeArm  24.0508 -26.5008 -4.40531
LeftHand  -0.244104 0.0205437 5.32207
RightShoulder  6.95299 10.3246 43.8642
RightArm  -7.75051 -11.6736 29.4111
RightForeArm  11.7258 3.63509 6.18867
RightHand  -1.48834 4.40021 -17.7893
LeftUpLeg  8.42618 6.56884 7.66042
LeftLeg  41.7447 4.50707 4.65118
LeftFoot  2.54047 1.31143 -10.9494
LeftToes  -6.82154e-011 1.37952e-011 -1.79748e-011
69
root  41.7676 38.6926 -3.25411 75.7467 -84.3221 -77.7029
RightUpLeg  -17.6569 -14.5938 7.58495
RightLeg  24.2869 -3.29365 -1.72447
RightFoot  -5.50006 0.240093 -5.42661
RightToes  -1.74624e-010 0 -3.6325e-017
Spine  6.36712 -4.05473 9.36046
Spine1  7.97427 -4.20046 3.73723
HEad  -14.9296 6.31743 -3.39056
LeftShoulder1  9.87918 -13.5221 -50.6506
LeftArm  4.7822 4.45658 -27.505
LeftForeArm  23.4103 -24.7934 -4.06863
LeftHand  -0.244104 0.0205437 5.32207
RightShoulder  6.84476 10.2108 43.523
RightArm  -6.91899 -9.03178 30.6083
RightForeArm  9.58233 6.12687 6.81375
RightHand  -1.66354 5.05142 -18.6361
LeftUpLeg  1.47344 4.59677 7.58333
LeftLeg  51.2255 4.02111 5.79266
LeftFoot  7.85443 1.30999 -7.9361
LeftToes  -6.82154e-011 1.37952e-011 -1.79748e-011
70
root  40.3341 39.0176 -3.36729 75.8749 -84.9727 -77.6202
RightUpLeg  -14.4679 -14.203 6.10879
RightLeg  22.8601 -3.53059 -0.945192
RightFoot  -7.05278 0.1311 -4.771
RightToes  -1.74624e-010 0 -3.6325e-017
Spine  6.24345 -2.9521 10.5835
Spine1  8.08468 -2.43188 1.77233
HEad  -15.0044 4.07944 -2.62766
LeftShoulder1  9.9311 -13.5659 -50.7847
LeftArm  6.70853 5.50394 -28.0505
LeftForeArm  23.2963 -23.0883 -3.80657
LeftHand  -0.244104 0.0205437 5.32207
RightShoulder  6.85383 10.2608 43.4165
RightArm  -3.86705 -6.21159 30.8014
RightForeArm  6.18871 9.96819 7.5445
RightHand  -1.66802 4.99329 -18.7788
LeftUpLeg  -4.12231 4.60493 6.77761
LeftLeg  57.1838 3.57041 6.47061
LeftFoot  6.83155 0.983202 -6.39864
LeftToes  -6.82154e-011 1.37952e-011 -1.79748e-011
71
root  38.8757 39.3697 -3.49262 82.6873 -86.4769 -84.1574
RightUpLeg  -10.9378 -12.4264 3.80691
RightLeg  20.708 -4.50573 -0.0513333
RightFoot  -8.4285 0.0500918 -4.21886
RightToes  -1.74624e-010 0 -3.6325e-017
Spine  6.11509 -1.62952 10.6666
Spine1  8.14521 -0.579693 -0.198159
HEad  -15.0571 2.41199 -2.26414
LeftShoulder1  9.87219 -13.4873 -50.7173
LeftArm  6.64667 7.14811 -28.3413
LeftForeArm  23.7347 -21.7868 -3.88776
LeftHand  -0.244104 0.0205437 5.32207
RightShoulder  6.88565 10.3903 43.1999
RightArm  1.70669 -3.03547 30.7992
RightForeArm  1.02688 14.3517 7.26012
RightHand  -1.55275 4.41462 -18.5104
LeftUpLeg  -8.99686 5.5723 5.2331
LeftLeg  59.4049 3.47735 6.89088
LeftFoot  3.76569 0.784824 -6.09409
LeftToes  -6.82154e-011 1.37952e-011 -1.79748e-011
